<svg width="177" height="20" viewBox="0 0 177 20" fill="none" xmlns="http://www.w3.org/2000/svg">
<path d="M130.4 3.85773L127.93 10.1912H132.677L130.4 3.85773ZM126.574 13.6239C126.186 14.5425 125.75 15.7511 125.75 16.7181C125.75 17.685 126.671 17.8784 127.397 18.0235L128.56 18.1202V19.0387H121.342V18.1685C122.795 17.8784 123.377 17.54 124.006 16.2346C124.2 15.8478 124.394 15.3644 124.588 14.7842L125.072 13.5755L129.674 1.97219L129.238 0.715159H132.386L137.182 13.5755L138.006 15.7995C138.199 16.283 138.49 17.2499 138.926 17.6367C139.265 17.9751 139.798 18.0718 140.912 18.1202V19.0387H132.193V18.1202C133.743 18.0718 134.905 18.0235 134.905 17.0082C134.905 16.428 134.663 15.5578 134.324 14.8325L133.888 13.5755L133.162 11.4482H127.349L126.574 13.6239ZM107.537 2.11723C106.907 2.11723 106.229 2.21392 105.841 2.21392V10.4813H107.585C108.457 10.4813 109.28 10.3846 110.104 9.99782C111.024 9.51435 111.799 8.49906 111.799 6.42013C111.799 3.03583 109.329 2.11723 107.537 2.11723ZM105.841 13.6239V15.4127C105.841 17.7334 106.083 18.1685 107.73 18.1685H109.038V19.0871H99.7862V18.1685C102.499 18.2652 102.693 17.54 102.693 15.9445V4.43789C102.693 2.6007 102.402 2.6007 99.7862 2.45566V1.53706C101.578 1.34367 103.952 1.10193 107.052 1.10193C108.457 1.10193 115.045 1.10194 115.045 6.27509C115.045 8.35402 114.076 9.6594 112.284 10.5296C111.896 10.723 111.509 10.8197 111.218 10.9648C111.557 11.3032 111.848 11.5933 112.138 11.9801C112.381 12.3668 112.671 12.8503 113.059 13.6722L113.64 14.9292C114.996 17.685 115.723 18.2169 117.225 18.5069V19.4255C114.609 19.5222 112.526 18.5553 110.831 15.9445C110.588 15.6061 110.056 14.6392 109.523 13.6722C109.038 12.7536 108.505 11.8834 108.312 11.5449H105.841V13.6239ZM41.6579 3.85773L39.1874 10.1912H43.9346L41.6579 3.85773ZM37.8311 13.6239C37.492 14.5425 37.056 15.7511 37.056 16.7181C37.056 17.685 37.928 17.8784 38.703 18.0235L39.8171 18.1202V19.0387H32.648V18.1685C34.1496 17.8784 34.6825 17.54 35.3122 16.2346L35.8935 14.7842L36.3779 13.5755L41.0281 1.97219L40.5922 0.715159H43.7408L48.5364 13.5755L49.3599 15.7995C49.5536 16.283 49.8443 17.2499 50.2802 17.6367C50.6678 17.9751 51.1522 18.0718 52.3147 18.1202V19.0387H43.4986V18.1202C45.0002 18.0718 46.2112 18.0235 46.2112 17.0082C46.2112 16.428 45.9206 15.5578 45.63 14.8325L45.194 13.5755L44.419 11.4482H38.6546L37.8311 13.6239ZM173.851 13.6239V15.5094C173.851 17.685 174.433 18.0235 177 18.1685V19.0871H167.845V18.1685C170.025 18.0235 170.073 17.9751 170.315 17.54C170.751 16.8631 170.751 14.6875 170.751 13.8172V4.87301C170.751 2.69739 170.315 2.40731 167.699 2.21392V1.29532H176.855V2.21392C173.851 2.31062 173.803 2.74574 173.803 5.69492V13.6239H173.851ZM154.039 13.6239V15.7028C154.039 16.9115 154.136 17.4433 154.572 17.7334C154.814 17.8784 155.105 17.9751 155.541 18.0235C155.977 18.0718 156.558 18.1202 157.333 18.1202V19.0387H147.5V18.1202C148.372 18.0718 148.953 18.0235 149.389 18.0235C149.825 17.9268 150.164 17.8784 150.358 17.7334C150.745 17.4916 150.842 16.9598 150.842 15.8962V2.45566H147.887C146.725 2.45566 146.24 2.55235 145.95 2.74574C145.708 2.89078 145.562 3.08417 145.417 3.47095C145.272 3.85773 145.126 4.4379 144.787 5.45319H143.915L144.303 0.763506H145.029C145.32 1.24698 145.562 1.29532 146.047 1.34367H158.157C159.465 1.34367 159.61 1.24698 159.804 0.763506H160.53L160.966 5.45319H160.046C159.416 2.50401 158.835 2.45566 157.333 2.45566H154.039V13.6239ZM83.4618 13.6239V16.283C83.4618 17.9268 83.5587 17.9268 85.2057 17.9268H88.3058C90.0981 17.9268 91.0185 17.6367 91.7935 14.5425H92.7624L92.3264 18.9904H77.4068V18.0718C80.071 18.1685 80.2648 17.4433 80.2648 15.8478V4.38955C80.2648 2.40731 79.7319 2.06888 77.4068 2.11723V1.29532H91.5513L91.7451 5.35649H90.8247C90.3403 2.64904 89.7106 2.45566 87.773 2.45566H83.4134V9.51435H87.7246C89.1778 9.51435 89.5653 9.51435 89.8075 7.33873H90.7763V12.8987H89.8075C89.7106 10.6747 89.42 10.578 87.4339 10.578H83.4134V13.6239H83.4618ZM69.8017 13.6239C69.8501 13.9139 69.8985 14.2524 69.8985 14.5425C69.8985 17.2499 67.7187 19.6673 64.3279 19.6673C63.7951 19.6673 63.456 19.6189 62.9716 19.5706C62.4872 19.4739 61.8575 19.2805 60.7918 18.9904C60.598 18.8937 60.4527 18.8937 60.3074 18.8937C59.9683 18.8937 59.8714 18.9904 59.8714 19.2805H58.9995L58.4666 14.6875H59.4354C60.6465 18.1685 63.1653 18.6036 63.9888 18.6036C65.103 18.6036 67.3312 17.8784 67.3312 15.5578C67.3312 14.7842 67.089 14.1557 66.653 13.5755C65.9264 12.6086 64.6186 11.835 62.8263 10.723C59.1932 8.49906 58.5151 6.85525 58.5151 5.25979C58.5151 2.6007 60.9371 0.666809 63.4075 0.666809C64.3764 0.666809 65.2483 0.811851 66.0233 1.10193C66.2655 1.19863 67.089 1.53706 67.2343 1.53706C67.3312 1.53706 67.4765 1.44036 67.7187 1.15028H68.5907L69.0266 5.40484H68.0578C67.1859 3.13252 65.7811 1.73045 63.7951 1.73045C62.245 1.73045 61.0824 2.89078 61.0824 4.19616C61.0824 5.01806 61.3246 5.54988 62.0512 6.22674C62.4387 6.56517 62.9716 7.00029 63.6497 7.43542L66.2171 9.12757C67.0406 9.65939 67.8156 10.1912 68.4453 10.9164C69.0751 11.69 69.6079 12.5602 69.8017 13.6239ZM5.66674 13.6239L5.47298 15.7995C5.42454 15.9929 5.42454 16.573 5.42454 17.0082C5.42454 18.1202 6.97463 18.1202 7.94343 18.1202V19.0387H0.871155V18.1202C3.92289 17.9751 3.92289 17.8301 4.16509 14.7359L4.26197 13.5755L5.03702 4.05111C5.1339 2.35896 4.84326 2.35896 2.51812 2.21392V1.29532H8.52472L13.8531 13.5755L14.2407 14.4941L14.6766 13.5755L20.0535 1.29532H25.9632V2.21392C25.2366 2.21392 24.8006 2.21392 24.4131 2.26227C24.074 2.35896 23.8318 2.40731 23.6865 2.55235C23.3959 2.84243 23.3474 3.47095 23.4443 4.82467L24.0256 13.6239L24.1225 15.2193C24.2678 17.54 24.3162 18.2652 26.9805 18.1685V19.0871H18.3097V18.1685C18.9394 18.1202 19.8597 18.0718 20.441 17.8784C20.9254 17.685 21.2161 17.3949 21.2161 16.7664C21.2161 16.5247 21.1192 15.7028 21.1192 15.4611L21.0223 13.6722L20.441 4.00277L16.1783 13.6722L13.8047 19.1354H12.9328L10.6076 13.6722L6.49023 4.00277L5.66674 13.6239Z" fill="white"/>
</svg>
